# xmcd
#
# Track frame offsets: 
#        150
#        10282
#        25032
#        36560
#        46410
#        61310
#        76815
#        90870
#        106502
#        118692
#        131472
#        144037
#        160422
#        171972
#
# Disc length: 2673 seconds
#
# Revision: 0
# Processed by: cddbd v1.5.2PL0 Copyright (c) Steve Scherf et al.
# Submitted via: ExactAudioCopy v1.0b6
#
DISCID=a30a6f0e
DTITLE=Shaver - The Earth Rolls On
DYEAR=2001
DGENRE=Country
TTITLE0=Love Is So Sweet
TTITLE1=Evergreen Fields
TTITLE2=Hard Headed Heart
TTITLE3=New York City Girl
TTITLE4=Restless Wind
TTITLE5=Sail Of My Soul
TTITLE6=You're Too Much For Me
TTITLE7=Blood Is Thicker Than Water
TTITLE8=Star In My Heart
TTITLE9=It's Not Over Till It's Over
TTITLE10=Hearts A'  Bustin'
TTITLE11=Leavin' Amarillo
TTITLE12=I Don't Seem To Fit Anywhere
TTITLE13=The Earth Rolls On
EXTD=
EXTT0=
EXTT1=
EXTT2=
EXTT3=
EXTT4=
EXTT5=
EXTT6=
EXTT7=
EXTT8=
EXTT9=
EXTT10=
EXTT11=
EXTT12=
EXTT13=
PLAYORDER=
